<svg width="30" height="14" viewBox="0 0 30 14" fill="none" xmlns="http://www.w3.org/2000/svg">
<g clip-path="url(#clip0_404_7750)">
<path fill-rule="evenodd" clip-rule="evenodd" d="M10.8233 10.5693C11.5627 9.57185 12 8.33699 12 7C12 3.68627 9.31367 1 6 1C2.68627 1 0 3.68627 0 7C0 10.3137 2.68627 13 6 13C7.73854 13 9.30436 12.2606 10.4002 11.079C10.5503 10.9171 10.6916 10.747 10.8233 10.5693ZM10.4907 10C11.065 9.14193 11.3999 8.11006 11.3999 7C11.3999 4.01767 8.98233 1.59999 5.99994 1.59999C3.01767 1.59999 0.599987 4.01767 0.599987 7C0.599987 8.11013 0.934932 9.14193 1.50934 10C2.234 8.91741 3.33976 8.11146 4.63471 7.77411C4.00945 7.34083 3.59999 6.61826 3.59999 5.79996C3.59999 4.47449 4.67453 3.39995 6 3.39995C7.32547 3.39995 8.40001 4.47449 8.40001 5.79996C8.40001 6.6182 7.99048 7.34083 7.36529 7.77404C8.66018 8.11146 9.766 8.91735 10.4907 10ZM10.1042 10.5095C9.26213 9.12484 7.73911 8.19997 6.00006 8.19997C4.26095 8.19997 2.73787 9.12484 1.89582 10.5096C2.88622 11.6667 4.35744 12.4 6 12.4C7.64256 12.4 9.11378 11.6666 10.1042 10.5095ZM6 7.59999C6.99413 7.59999 7.80002 6.79416 7.80002 5.79996C7.80002 4.80583 6.9942 3.99994 6 3.99994C5.0058 3.99994 4.19997 4.80589 4.19997 5.80002C4.19997 6.79416 5.00587 7.59999 6 7.59999Z" fill="#414651"/>
</g>
<path d="M21.1038 8.34L19.9788 5.425C19.9455 5.33833 19.9105 5.23833 19.8738 5.125C19.8371 5.00833 19.8021 4.885 19.7688 4.755C19.6988 5.025 19.6271 5.25 19.5538 5.43L18.4288 8.34H21.1038ZM23.1238 11H22.3738C22.2871 11 22.2171 10.9783 22.1638 10.935C22.1105 10.8917 22.0705 10.8367 22.0438 10.77L21.3738 9.04H18.1588L17.4888 10.77C17.4688 10.83 17.4305 10.8833 17.3738 10.93C17.3171 10.9767 17.2471 11 17.1638 11H16.4138L19.2788 3.835H20.2588L23.1238 11ZM26.5814 10.23C26.858 10.23 27.0964 10.1983 27.2964 10.135C27.4964 10.0717 27.6597 9.98333 27.7864 9.87C27.9164 9.75333 28.0114 9.61667 28.0714 9.46C28.1314 9.3 28.1614 9.125 28.1614 8.935C28.1614 8.565 28.0297 8.27333 27.7664 8.06C27.503 7.84333 27.108 7.735 26.5814 7.735H25.0314V10.23H26.5814ZM25.0314 4.6V7.045H26.3114C26.5847 7.045 26.8214 7.015 27.0214 6.955C27.2247 6.895 27.3914 6.81167 27.5214 6.705C27.6547 6.59833 27.753 6.47 27.8164 6.32C27.8797 6.16667 27.9114 6 27.9114 5.82C27.9114 5.39667 27.7847 5.08833 27.5314 4.895C27.278 4.69833 26.8847 4.6 26.3514 4.6H25.0314ZM26.3514 3.835C26.7914 3.835 27.1697 3.87833 27.4864 3.965C27.8064 4.05167 28.068 4.175 28.2714 4.335C28.478 4.495 28.6297 4.69167 28.7264 4.925C28.823 5.155 28.8714 5.415 28.8714 5.705C28.8714 5.88167 28.843 6.05167 28.7864 6.215C28.733 6.375 28.6514 6.525 28.5414 6.665C28.4314 6.805 28.2914 6.93167 28.1214 7.045C27.9547 7.155 27.758 7.245 27.5314 7.315C28.058 7.415 28.453 7.60333 28.7164 7.88C28.983 8.15333 29.1164 8.51333 29.1164 8.96C29.1164 9.26333 29.0597 9.54 28.9464 9.79C28.8364 10.04 28.673 10.255 28.4564 10.435C28.243 10.615 27.9797 10.755 27.6664 10.855C27.353 10.9517 26.9964 11 26.5964 11H24.0664V3.835H26.3514Z" fill="#414651"/>
<defs>
<clipPath id="clip0_404_7750">
<rect width="12" height="12" fill="white" transform="translate(0 1)"/>
</clipPath>
</defs>
</svg>
