<svg width="32" height="14" viewBox="0 0 32 14" fill="none" xmlns="http://www.w3.org/2000/svg">
<g clip-path="url(#clip0_404_7730)">
<path fill-rule="evenodd" clip-rule="evenodd" d="M11.3233 10.5693C12.0627 9.57185 12.5 8.33699 12.5 7C12.5 3.68627 9.81367 1 6.5 1C3.18627 1 0.5 3.68627 0.5 7C0.5 10.3137 3.18627 13 6.5 13C8.23854 13 9.80436 12.2606 10.9002 11.079C11.0503 10.9171 11.1916 10.747 11.3233 10.5693ZM10.9907 10C11.565 9.14193 11.8999 8.11006 11.8999 7C11.8999 4.01767 9.48233 1.59999 6.49994 1.59999C3.51767 1.59999 1.09999 4.01767 1.09999 7C1.09999 8.11013 1.43493 9.14193 2.00934 10C2.734 8.91741 3.83976 8.11146 5.13471 7.77411C4.50945 7.34083 4.09999 6.61826 4.09999 5.79996C4.09999 4.47449 5.17453 3.39995 6.5 3.39995C7.82547 3.39995 8.90001 4.47449 8.90001 5.79996C8.90001 6.6182 8.49048 7.34083 7.86529 7.77404C9.16018 8.11146 10.266 8.91735 10.9907 10ZM10.6042 10.5095C9.76213 9.12484 8.23911 8.19997 6.50006 8.19997C4.76095 8.19997 3.23787 9.12484 2.39582 10.5096C3.38622 11.6667 4.85744 12.4 6.5 12.4C8.14256 12.4 9.61378 11.6666 10.6042 10.5095ZM6.5 7.59999C7.49413 7.59999 8.30002 6.79416 8.30002 5.79996C8.30002 4.80583 7.4942 3.99994 6.5 3.99994C5.5058 3.99994 4.69997 4.80589 4.69997 5.80002C4.69997 6.79416 5.50587 7.59999 6.5 7.59999Z" fill="#414651"/>
</g>
<path d="M22.7868 9.52C22.8401 9.52 22.8868 9.54167 22.9268 9.585L23.3118 10C23.0185 10.34 22.6618 10.605 22.2418 10.795C21.8251 10.985 21.3201 11.08 20.7268 11.08C20.2135 11.08 19.7468 10.9917 19.3268 10.815C18.9068 10.635 18.5485 10.385 18.2518 10.065C17.9551 9.74167 17.7251 9.355 17.5618 8.905C17.3985 8.455 17.3168 7.96 17.3168 7.42C17.3168 6.88 17.4018 6.385 17.5718 5.935C17.7418 5.485 17.9801 5.09833 18.2868 4.775C18.5968 4.45167 18.9668 4.20167 19.3968 4.025C19.8268 3.845 20.3018 3.755 20.8218 3.755C21.3318 3.755 21.7818 3.83667 22.1718 4C22.5618 4.16333 22.9051 4.385 23.2018 4.665L22.8818 5.11C22.8618 5.14333 22.8351 5.17167 22.8018 5.195C22.7718 5.215 22.7301 5.225 22.6768 5.225C22.6168 5.225 22.5435 5.19333 22.4568 5.13C22.3701 5.06333 22.2568 4.99 22.1168 4.91C21.9768 4.83 21.8018 4.75833 21.5918 4.695C21.3818 4.62833 21.1235 4.595 20.8168 4.595C20.4468 4.595 20.1085 4.66 19.8018 4.79C19.4951 4.91667 19.2301 5.10167 19.0068 5.345C18.7868 5.58833 18.6151 5.885 18.4918 6.235C18.3685 6.585 18.3068 6.98 18.3068 7.42C18.3068 7.86667 18.3701 8.265 18.4968 8.615C18.6268 8.965 18.8018 9.26167 19.0218 9.505C19.2451 9.745 19.5068 9.92833 19.8068 10.055C20.1101 10.1817 20.4368 10.245 20.7868 10.245C21.0001 10.245 21.1918 10.2333 21.3618 10.21C21.5351 10.1833 21.6935 10.1433 21.8368 10.09C21.9835 10.0367 22.1185 9.97 22.2418 9.89C22.3685 9.80667 22.4935 9.70833 22.6168 9.595C22.6735 9.545 22.7301 9.52 22.7868 9.52ZM30.2415 3.835V11H29.2715V7.74H25.4065V11H24.4365V3.835H25.4065V7.03H29.2715V3.835H30.2415Z" fill="#414651"/>
<defs>
<clipPath id="clip0_404_7730">
<rect width="12" height="12" fill="white" transform="translate(0.5 1)"/>
</clipPath>
</defs>
</svg>
