<svg width="28" height="14" viewBox="0 0 28 14" fill="none" xmlns="http://www.w3.org/2000/svg">
<g clip-path="url(#clip0_404_7690)">
<path fill-rule="evenodd" clip-rule="evenodd" d="M10.8233 10.5693C11.5627 9.57185 12 8.33699 12 7C12 3.68627 9.31367 1 6 1C2.68627 1 0 3.68627 0 7C0 10.3137 2.68627 13 6 13C7.73854 13 9.30436 12.2606 10.4002 11.079C10.5503 10.9171 10.6916 10.747 10.8233 10.5693ZM10.4907 10C11.065 9.14193 11.3999 8.11006 11.3999 7C11.3999 4.01767 8.98233 1.59999 5.99994 1.59999C3.01767 1.59999 0.599987 4.01767 0.599987 7C0.599987 8.11013 0.934932 9.14193 1.50934 10C2.234 8.91741 3.33976 8.11146 4.63471 7.77411C4.00945 7.34083 3.59999 6.61826 3.59999 5.79996C3.59999 4.47449 4.67453 3.39995 6 3.39995C7.32547 3.39995 8.40001 4.47449 8.40001 5.79996C8.40001 6.6182 7.99048 7.34083 7.36529 7.77404C8.66018 8.11146 9.766 8.91735 10.4907 10ZM10.1042 10.5095C9.26213 9.12484 7.73911 8.19997 6.00006 8.19997C4.26095 8.19997 2.73787 9.12484 1.89582 10.5096C2.88622 11.6667 4.35744 12.4 6 12.4C7.64256 12.4 9.11378 11.6666 10.1042 10.5095ZM6 7.59999C6.99413 7.59999 7.80002 6.79416 7.80002 5.79996C7.80002 4.80583 6.9942 3.99994 6 3.99994C5.0058 3.99994 4.19997 4.80589 4.19997 5.80002C4.19997 6.79416 5.00587 7.59999 6 7.59999Z" fill="#414651"/>
</g>
<path d="M21.7344 10.21L21.7294 11H17.3144V3.835H21.7294V4.625H18.2844V7.005H21.0744V7.765H18.2844V10.21H21.7344ZM26.7509 4.955C26.7209 5.005 26.6876 5.04333 26.6509 5.07C26.6176 5.09333 26.5759 5.105 26.5259 5.105C26.4692 5.105 26.4026 5.07667 26.3259 5.02C26.2492 4.96333 26.1526 4.90167 26.0359 4.835C25.9226 4.765 25.7842 4.70167 25.6209 4.645C25.4609 4.58833 25.2659 4.56 25.0359 4.56C24.8192 4.56 24.6276 4.59 24.4609 4.65C24.2976 4.70667 24.1592 4.785 24.0459 4.885C23.9359 4.985 23.8526 5.10333 23.7959 5.24C23.7392 5.37333 23.7109 5.51833 23.7109 5.675C23.7109 5.875 23.7592 6.04167 23.8559 6.175C23.9559 6.305 24.0859 6.41667 24.2459 6.51C24.4092 6.60333 24.5926 6.685 24.7959 6.755C25.0026 6.82167 25.2126 6.89167 25.4259 6.965C25.6426 7.03833 25.8526 7.12167 26.0559 7.215C26.2626 7.305 26.4459 7.42 26.6059 7.56C26.7692 7.7 26.8992 7.87167 26.9959 8.075C27.0959 8.27833 27.1459 8.52833 27.1459 8.825C27.1459 9.13833 27.0926 9.43333 26.9859 9.71C26.8792 9.98333 26.7226 10.2217 26.5159 10.425C26.3126 10.6283 26.0609 10.7883 25.7609 10.905C25.4642 11.0217 25.1259 11.08 24.7459 11.08C24.2792 11.08 23.8559 10.9967 23.4759 10.83C23.0959 10.66 22.7709 10.4317 22.5009 10.145L22.7809 9.685C22.8076 9.64833 22.8392 9.61833 22.8759 9.595C22.9159 9.56833 22.9592 9.555 23.0059 9.555C23.0492 9.555 23.0976 9.57333 23.1509 9.61C23.2076 9.64333 23.2709 9.68667 23.3409 9.74C23.4109 9.79333 23.4909 9.85167 23.5809 9.915C23.6709 9.97833 23.7726 10.0367 23.8859 10.09C24.0026 10.1433 24.1342 10.1883 24.2809 10.225C24.4276 10.2583 24.5926 10.275 24.7759 10.275C25.0059 10.275 25.2109 10.2433 25.3909 10.18C25.5709 10.1167 25.7226 10.0283 25.8459 9.915C25.9726 9.79833 26.0692 9.66 26.1359 9.5C26.2026 9.34 26.2359 9.16167 26.2359 8.965C26.2359 8.74833 26.1859 8.57167 26.0859 8.435C25.9892 8.295 25.8609 8.17833 25.7009 8.085C25.5409 7.99167 25.3576 7.91333 25.1509 7.85C24.9442 7.78333 24.7342 7.71667 24.5209 7.65C24.3076 7.58 24.0976 7.5 23.8909 7.41C23.6842 7.32 23.5009 7.20333 23.3409 7.06C23.1809 6.91667 23.0509 6.73833 22.9509 6.525C22.8542 6.30833 22.8059 6.04167 22.8059 5.725C22.8059 5.47167 22.8542 5.22667 22.9509 4.99C23.0509 4.75333 23.1942 4.54333 23.3809 4.36C23.5709 4.17667 23.8026 4.03 24.0759 3.92C24.3526 3.81 24.6692 3.755 25.0259 3.755C25.4259 3.755 25.7892 3.81833 26.1159 3.945C26.4459 4.07167 26.7359 4.255 26.9859 4.495L26.7509 4.955Z" fill="#414651"/>
<defs>
<clipPath id="clip0_404_7690">
<rect width="12" height="12" fill="white" transform="translate(0 1)"/>
</clipPath>
</defs>
</svg>
